<?xml version="1.0" encoding="UTF-8"?>
<svg id="Layer_1" data-name="Layer 1" xmlns="http://www.w3.org/2000/svg" viewBox="0 0 1089.04 763.76">
  <defs>
    <style>
      .cls-1 {
        fill: #06b0e6;
      }

      .cls-2 {
        fill: #181819;
      }

      .cls-3 {
        fill: #fdfdfd;
      }
    </style>
  </defs>
  <path class="cls-2" d="M520.75,763.08l-89.61-1.82c-61.83-1.25-152.35-10.28-210.64-30.63-82.73-28.89-113.91-81.37-128.25-165.35l-20.26-2.08c-18.74-1.93-36.34-9.81-49.09-23.87-17.5-19.31-20.34-52.64-21.35-78.35-2.14-54.19-1.92-107.57-.3-161.76.45-15.14,1.7-29.02,4.68-43.51,2.78-13.52,8.37-26.1,17.75-36.16,12.33-13.24,28.96-21.23,46.85-22.97l20.57-2c15.28-84.55,42.45-139.58,128.47-167.06,47.51-15.18,116.24-20.75,166.55-23.46l22.09-1.19,27.97-1.04,36.11-.89c50.54-1.25,100.2-1.23,150.73.06l29.16.75,36.99,1.33,54.81,3.49c33.96,2.16,66.9,6.22,100.13,13.68,23.14,5.19,44.6,12.57,65.28,23.79,27.75,15.06,49.06,37.34,62.93,65.82,12.31,25.26,19.39,51.9,24.14,79.61.33,1.92.71,5.09,2.91,5.28l11.07,1c60.16,5.43,75.63,43.83,77.38,99.53,1.93,61.36,1.6,122.16-1.13,183.43-.61,13.72-2.9,26.17-7.39,38.78-9.78,27.41-35.02,43.68-63.2,46.14l-18.14,1.59c-11.21,62.69-33.63,116.74-91.5,148.92-21.01,11.69-42.62,19.97-65.97,26.12-30.8,8.12-61.4,13.25-93.22,15.73l-46.3,3.6c-60.04,4.67-119.18,4.75-180.21,3.51ZM729.64,736.46c51.82-3.82,112.17-13.01,157.9-35.73,59.07-29.35,79.04-79.8,90.04-141.61,6.78-38.09,10.85-75.74,11.61-114.33l.77-38.72.1-39.18c.16-62.08-5.01-141.41-19.73-201.67-12.05-49.32-32.9-86.03-80.44-107.85-24.68-11.33-50.23-17.7-77.14-22.21-85.86-14.39-305.05-17.73-393.07-12.06l-82.49,5.32c-43.86,2.83-103.51,11.98-142.71,31.83-45.25,22.93-65.18,61.17-76.56,108.85-7.3,30.59-11.45,60.54-14.24,92.05-5.29,59.8-5.92,172.61-.03,231.63l1.5,15.03c2.22,22.22,5.6,43.63,10.2,65.72s10.44,41.67,19.62,61.52c17.31,37.38,52.33,61.44,90.22,75.13,26.36,9.52,52.96,15.32,80.98,19.46,43.78,6.47,87.07,9.95,131.38,10.36l160.58,1.48c44.19.41,86.78-1.73,131.51-5.02ZM29.33,510.2c10.57,24.34,33.58,33.83,58.58,33.72-5.1-35.71-7.82-69.42-8.83-104.41-1.22-42.02-1.13-83.01-.02-125.03.88-33.25,3.6-65.31,7.8-98.63-27.11-.23-50.72,12.59-59.09,38.14-7.15,21.82-6.31,66.45-6.96,91.09-.74,28.38-.8,55.61.03,83.97.65,22.32-.13,61.27,8.49,81.14ZM1064.65,495.26c3.19-18.73,3.18-36.91,3.68-56.29,1.24-47.91,1.36-94.86-.76-142.72-.56-12.73-1.31-24.31-4.08-36.34-6.86-29.78-32.04-45.05-61.49-44.05l2.43,20.62c4.64,39.36,6.92,78.39,6.92,118.11v46.92s-2.2,69.31-2.2,69.31c-.66,20.7-4.01,40.64-5.98,61.19l-1.16,12.15c31.83-.12,57.17-16.85,62.63-48.9Z"/>
  <path class="cls-3" d="M729.64,736.46c-44.74,3.3-87.33,5.43-131.51,5.02l-160.58-1.48c-44.31-.41-87.6-3.88-131.38-10.36-28.01-4.14-54.62-9.94-80.98-19.46-37.89-13.69-72.91-37.75-90.22-75.13-9.19-19.85-15.17-40.14-19.62-61.52s-7.98-43.5-10.2-65.72l-1.5-15.03c-5.89-59.01-5.26-171.83.03-231.63,2.79-31.51,6.94-61.46,14.24-92.05,11.38-47.68,31.3-85.92,76.56-108.85,39.19-19.86,98.84-29,142.71-31.83l82.49-5.32c88.02-5.67,307.21-2.33,393.07,12.06,26.91,4.51,52.46,10.89,77.14,22.21,47.54,21.82,68.39,58.53,80.44,107.85,14.72,60.26,19.89,139.58,19.73,201.67l-.1,39.18-.77,38.72c-.77,38.59-4.83,76.24-11.61,114.33-11,61.81-30.97,112.26-90.04,141.61-45.73,22.72-106.08,31.91-157.9,35.73ZM822.21,624.87c49.94-16.92,69.15-53.25,78.82-102.63,5.36-27.36,8.27-54.13,9.57-82.22,2.79-60.24,3.12-151.64-8.8-209.87-7.74-37.82-23.68-70.53-60.06-87.38-27.45-12.72-61.85-16.59-92.05-18.96-36.46-2.86-72.07-4.13-108.83-5.03-95.32-2.35-243.01-2.57-335.72,8.47-16.81,2-32.17,5.32-47.79,10.89-39.28,13.99-58.46,43.46-68.35,82.69-5.68,22.54-8.63,44.8-10.3,68.33-4.8,67.61-4.77,157.98,6.06,224.56,2.72,16.7,6.58,31.96,12.42,47.6,10.5,28.09,31.47,49.08,59.48,60.19,20.53,8.14,41.62,12.42,63.72,15.37,31.98,4.27,63.39,6.43,95.95,7.49,84.05,2.73,167.34,2.68,251.33-.06,47.57-1.56,110.09-4.38,154.54-19.44Z"/>
  <path class="cls-3" d="M1064.65,495.26c-5.46,32.04-30.81,48.78-62.63,48.9l1.16-12.15c1.97-20.54,5.32-40.49,5.98-61.19l2.2-69.31v-46.92c0-39.72-2.28-78.75-6.92-118.11l-2.43-20.62c29.45-1.01,54.62,14.27,61.49,44.05,2.77,12.03,3.52,23.61,4.08,36.34,2.12,47.85,2,94.81.76,142.72-.5,19.39-.49,37.56-3.68,56.29Z"/>
  <path class="cls-3" d="M29.33,510.2c-8.62-19.87-7.84-58.82-8.49-81.14-.83-28.35-.77-55.59-.03-83.97.64-24.64-.19-69.27,6.96-91.09,8.37-25.55,31.98-38.37,59.09-38.14-4.2,33.32-6.92,65.37-7.8,98.63-1.11,42.02-1.2,83.01.02,125.03,1.01,34.99,3.74,68.7,8.83,104.41-25,.11-48.02-9.38-58.58-33.72Z"/>
  <g>
    <path class="cls-2" d="M822.21,624.87c-44.46,15.06-106.97,17.88-154.54,19.44-83.99,2.75-167.29,2.79-251.33.06-32.57-1.06-63.97-3.21-95.95-7.49-22.1-2.95-43.18-7.23-63.72-15.37-28.01-11.11-48.98-32.09-59.48-60.19-5.84-15.64-9.71-30.9-12.42-47.6-10.83-66.58-10.86-156.95-6.06-224.56,1.67-23.54,4.62-45.79,10.3-68.33,9.89-39.22,29.06-68.7,68.35-82.69,15.62-5.56,30.98-8.88,47.79-10.89,92.71-11.04,240.4-10.82,335.72-8.47,36.76.91,72.37,2.17,108.83,5.03,30.2,2.37,64.6,6.24,92.05,18.96,36.37,16.85,52.32,49.56,60.06,87.38,11.92,58.23,11.59,149.63,8.8,209.87-1.3,28.09-4.21,54.85-9.57,82.22-9.67,49.38-28.89,85.72-78.82,102.63ZM277.59,402.33l33.51,34.58c4.44,4.58,8.99,8.34,13.24,13.02,1.7,1.88,4.04,3.11,6.87,3.1l86.79-.22c4.17-.01,7.07-4.72,9.51-7.29,12.57-13.21,24.28-26.22,35.88-40.17,6.54-7.86,11.67-8.57,11.14-20.35-.51-11.28-.13-22.23,0-33.54l.61-52.3c.05-4.29-3.79-6.91-6.38-9.64-7.13-7.54-14.35-14.07-21.86-21.19l-25.59-24.26c-3.31-3.14-8.33-1.24-12.37-1.24l-72.7.08c-3.24,0-7.27-.93-9.65,1.74-6.14,6.91-12.67,13.07-19.01,19.85l-13.14,14.04-30.22-27.29c-2.96-2.68-7.24-2.65-9.45-.02-1.95,2.31-2,6.42.32,9.23,8.86,10.71,19.28,19.62,29.71,29.41-3.33,4.32-6.76,7.16-10.93,10.68l-29.5-26.65c-3.65-3.29-7.93-4.01-11.46-.6-2.79,2.69-3.14,6.85-.04,10.42,4.86,5.6,10.11,10.87,15.9,15.68,4.48,3.73,7.95,7.87,12.29,11.87,8.29,7.66,9.63,3.84,9.83,20.83l.67,56.55c.07,5.56,1.79,9.3,6.05,13.69ZM813.24,394.66c2.77-2.56,3.03-6.33,3.03-9.59l.08-67.83c0-3.3,3.48-4.78,5.3-6.73l27.26-29.24c3-3.22,2.47-8.22-.1-10.49-2.33-2.06-7.53-2.63-10.19.1l-26.07,26.83c-3.46-3.01-6.26-5.31-8.56-8.6l25.91-27.86c3-3.22,2.53-8.15-.1-10.48-2.33-2.06-7.52-2.62-10.18.11l-26.21,26.93-29.96-30.02c-4.24-4.25-9.14-6.9-15.39-4.84l-52.27-.51c-9.57-.09-18.69-.48-28.18-.38l-31.33,30.96c-3.31,3.27-6.87,5.82-9.84,9.5-8.54,10.58-15.74,12.35-15.45,23.55l.96,38.01.56,43.91c.07,5.86,1.72,9.02,5.69,13.12l33.84,35.01,13.31,13.8c1.11,1.16,3.02,2.39,4.92,2.4l77.1.49c3.91.02,9.92,1.76,13.02-1.53l34.9-37.06c6.13-6.51,11.14-13.28,17.95-19.58ZM609.87,488.84c-2.94-1.6-7.24-2.48-10.19-.99-2.13,1.08-5.11,3.35-6.03,6.48-4.69,15.99-15.91,27.25-31.29,33.01-27.69,10.36-58.46-1.35-71.24-28.41-1.68-3.56-1.53-8.14-5.49-10.5s-9.42-1.66-13.34,1.27c-3.21,2.4-5.97,7.2-4.73,12.04,3.63,14.08,11.75,25.92,22.58,35.16,27.3,23.28,65.19,25.35,95.37,6.47,10.31-6.45,18.54-14.03,23.86-25.4,4-8.54,12.85-22.42.51-29.12Z"/>
    <path class="cls-1" d="M609.87,488.84c12.34,6.7,3.48,20.58-.51,29.12-5.32,11.37-13.55,18.95-23.86,25.4-30.18,18.88-68.07,16.81-95.37-6.47-10.83-9.23-18.95-21.08-22.58-35.16-1.25-4.84,1.51-9.64,4.73-12.04,3.92-2.93,9.2-3.74,13.34-1.27s3.81,6.94,5.49,10.5c12.78,27.06,43.55,38.77,71.24,28.41,15.39-5.76,26.61-17.02,31.29-33.01.92-3.13,3.89-5.4,6.03-6.48,2.96-1.49,7.26-.61,10.19.99Z"/>
    <g>
      <g>
        <path class="cls-1" d="M813.24,394.66c-6.82,6.3-11.82,13.07-17.95,19.58l-34.9,37.06c-3.1,3.29-9.12,1.56-13.02,1.53l-77.1-.49c-1.9-.01-3.8-1.24-4.92-2.4l-13.31-13.8-33.84-35.01c-3.96-4.1-5.61-7.26-5.69-13.12l-.56-43.91-.96-38.01c-.28-11.2,6.91-12.97,15.45-23.55,2.97-3.68,6.52-6.23,9.84-9.5l31.33-30.96c9.49-.1,18.61.29,28.18.38l52.27.51c6.25-2.07,11.15.59,15.39,4.84l29.96,30.02,26.21-26.93c2.66-2.73,7.85-2.17,10.18-.11,2.63,2.33,3.1,7.25.1,10.48l-25.91,27.86c2.3,3.28,5.1,5.58,8.56,8.6l26.07-26.83c2.66-2.74,7.86-2.16,10.19-.1,2.57,2.27,3.11,7.27.1,10.49l-27.26,29.24c-1.82,1.95-5.3,3.43-5.3,6.73l-.08,67.83c0,3.26-.26,7.03-3.03,9.59ZM768.08,417.46l22.15-24.32c2.95-3.24,6.69-5.37,9.03-9.45l-.1-66.71c0-2.9-.05-7.04-1.41-9.45-15.08-13.68-28.27-28.16-41.81-43.22-1.74-1.94-3.84-4.74-6.74-4.72l-75.85.35c-15.31,16.57-30.57,28.51-45.34,45.07l.6,43.44.49,39.29c17.39,16.15,28.93,33.13,45.98,48.54l75.52-.31c5.7-6.66,11.5-11.97,17.47-18.53Z"/>
        <path class="cls-2" d="M768.08,417.46c-5.97,6.56-11.77,11.87-17.47,18.53l-75.52.31c-17.05-15.41-28.59-32.39-45.98-48.54l-.49-39.29-.6-43.44c14.77-16.56,30.03-28.51,45.34-45.07l75.85-.35c2.9-.01,5,2.79,6.74,4.72,13.54,15.06,26.73,29.53,41.81,43.22,1.37,2.4,1.41,6.55,1.41,9.45l.1,66.71c-2.34,4.08-6.08,6.22-9.03,9.45l-22.15,24.32ZM716.02,321.77c0-20.22-16.39-36.62-36.62-36.62s-36.62,16.39-36.62,36.62,16.39,36.62,36.62,36.62,36.62-16.39,36.62-36.62ZM677.48,402.35c3.08-4.86,2.06-14.3.25-18.62-4.78-3.38-11.94-1.66-17.44-.53.48,6.64-2.11,14.23,1.17,19.8,2.65,3.13,13.6,3.15,16.02-.65ZM763.02,401.96c1.43-4.94,2.29-13.65-.41-18.24-4.7-3.38-12.76-1.62-17.96-.62-.46,6.43-.83,11.97.03,17.9s17.1,5.27,18.35.95ZM742.66,423.36c.93-4.14,1.3-14.19-5.54-14.17l-53.52.1c-2.34,5.52-2.1,11.58.68,16.64l53.85.06c1.53,0,4.12-.81,4.53-2.63Z"/>
        <circle class="cls-1" cx="679.4" cy="321.77" r="36.62"/>
        <path class="cls-1" d="M742.66,423.36c-.41,1.82-3,2.63-4.53,2.63l-53.85-.06c-2.78-5.05-3.02-11.12-.68-16.64l53.52-.1c6.84-.01,6.47,10.03,5.54,14.17Z"/>
        <path class="cls-1" d="M763.02,401.96c-1.25,4.32-17.5,4.88-18.35-.95s-.49-11.47-.03-17.9c5.2-1,13.26-2.76,17.96.62,2.7,4.59,1.84,13.29.41,18.24Z"/>
        <path class="cls-1" d="M677.48,402.35c-2.41,3.8-13.37,3.77-16.02.65-3.29-5.56-.7-13.16-1.17-19.8,5.5-1.13,12.66-2.85,17.44.53,1.81,4.32,2.84,13.76-.25,18.62Z"/>
      </g>
      <g>
        <path class="cls-1" d="M277.59,402.33c-4.26-4.4-5.99-8.13-6.05-13.69l-.67-56.55c-.2-16.99-1.54-13.18-9.83-20.83-4.33-4-7.81-8.15-12.29-11.87-5.79-4.81-11.04-10.09-15.9-15.68-3.09-3.57-2.74-7.73.04-10.42,3.54-3.41,7.82-2.7,11.46.6l29.5,26.65c4.17-3.52,7.6-6.36,10.93-10.68-10.43-9.79-20.86-18.7-29.71-29.41-2.32-2.81-2.27-6.92-.32-9.23,2.22-2.62,6.49-2.65,9.45.02l30.22,27.29,13.14-14.04c6.34-6.78,12.87-12.93,19.01-19.85,2.37-2.67,6.41-1.74,9.65-1.74l72.7-.08c4.04,0,9.06-1.9,12.37,1.24l25.59,24.26c7.51,7.12,14.73,13.65,21.86,21.19,2.59,2.74,6.43,5.35,6.38,9.64l-.61,52.3c-.13,11.31-.51,22.26,0,33.54.54,11.78-4.6,12.48-11.14,20.35-11.6,13.95-23.32,26.97-35.88,40.17-2.44,2.56-5.34,7.28-9.51,7.29l-86.79.22c-2.83,0-5.16-1.23-6.87-3.1-4.24-4.67-8.8-8.43-13.24-13.02l-33.51-34.58ZM358.14,436.51l53.71-.58,20.01-22.16c8.3-9.19,15.87-18.39,25.25-26.81l.39-33.93c.19-16.43.8-32.3.47-48.6-.03-1.25-1.53-3.11-2.41-3.77-9.23-6.92-17.18-14.5-25.01-22.99l-13.86-15.02c-2.97-3.22-5.43-3.51-9.65-3-8.9,1.06-17.82.06-26.95.55-14.71.8-29.04,1.37-43.72.2-7.41,5.73-12.65,13-19.12,19.8l-26.26,27.6c-3.49,3.67-3.52,6.61-3.38,11.61l1.02,36.09.76,35.29,10.61,9.45,16.62,17.18c5.29,5.47,11.17,10.21,15.77,16.3,3.31,4.37,20.24,2.85,25.75,2.79Z"/>
        <path class="cls-2" d="M358.14,436.51c-5.51.06-22.44,1.58-25.75-2.79-4.61-6.09-10.49-10.83-15.77-16.3l-16.62-17.18-10.61-9.45-.76-35.29-1.02-36.09c-.14-5-.11-7.95,3.38-11.61l26.26-27.6c6.47-6.8,11.71-14.07,19.12-19.8,14.68,1.17,29.01.6,43.72-.2,9.13-.5,18.05.51,26.95-.55,4.22-.5,6.68-.21,9.65,3l13.86,15.02c7.83,8.49,15.78,16.07,25.01,22.99.88.66,2.38,2.52,2.41,3.77.33,16.29-.28,32.17-.47,48.6l-.39,33.93c-9.38,8.42-16.95,17.62-25.25,26.81l-20.01,22.16-53.71.58ZM379.03,321.82c0-20.21-16.38-36.59-36.59-36.59s-36.59,16.38-36.59,36.59,16.38,36.59,36.59,36.59,36.59-16.38,36.59-36.59ZM428.32,402.24c1.81-7.04,2.37-12.67.51-18.85-3.21-2.78-17.07-1.96-18.17-.24-.2.31-3.1,14.4.54,18.15,3.96,4.07,11.97,2.83,17.13.94ZM342.29,402.28c1.07-5.12,2.22-14.09-.65-18.52-4.34-3.61-12.28-1.5-17.23-.56-.34,6.31-.94,11.87.08,17.74s17.1,4.73,17.81,1.34ZM405.13,425.96c3.03-3.63,3.77-16.83-4.01-16.79l-52.6.32c-3.31.02-3.58,16.22,1.76,16.25l54.86.22Z"/>
        <circle class="cls-1" cx="342.44" cy="321.82" r="36.59"/>
        <path class="cls-1" d="M405.13,425.96l-54.86-.22c-5.33-.02-5.06-16.23-1.76-16.25l52.6-.32c7.78-.05,7.04,13.16,4.01,16.79Z"/>
        <path class="cls-1" d="M428.32,402.24c-5.16,1.89-13.18,3.14-17.13-.94-3.63-3.74-.73-17.84-.54-18.15,1.1-1.73,14.96-2.54,18.17.24,1.86,6.18,1.3,11.81-.51,18.85Z"/>
        <path class="cls-1" d="M342.29,402.28c-.71,3.39-16.75,4.78-17.81-1.34s-.41-11.43-.08-17.74c4.95-.94,12.9-3.05,17.23.56,2.87,4.43,1.72,13.4.65,18.52Z"/>
      </g>
    </g>
  </g>
</svg>