<svg width="24" height="24" viewBox="0 0 24 24" fill="none" xmlns="http://www.w3.org/2000/svg">
<path d="M18.42 8.2199C17.809 6.8159 16.7545 5.65097 15.4181 4.90362C14.0817 4.15627 12.5371 3.86773 11.021 4.0822C9.50489 4.29668 8.10094 5.00235 7.02427 6.09107C5.9476 7.17979 5.2576 8.59151 5.06001 10.1099C4.1066 10.3382 3.27023 10.9087 2.70975 11.7131C2.14927 12.5174 1.9037 13.4996 2.01968 14.4731C2.13566 15.4466 2.60511 16.3436 3.33888 16.9938C4.07265 17.6439 5.01964 18.002 6.00001 17.9999C6.26523 17.9999 6.51958 17.8945 6.70712 17.707C6.89466 17.5195 7.00001 17.2651 7.00001 16.9999C7.00001 16.7347 6.89466 16.4803 6.70712 16.2928C6.51958 16.1053 6.26523 15.9999 6.00001 15.9999C5.46958 15.9999 4.96087 15.7892 4.5858 15.4141C4.21073 15.039 4.00001 14.5303 4.00001 13.9999C4.00001 13.4695 4.21073 12.9608 4.5858 12.5857C4.96087 12.2106 5.46958 11.9999 6.00001 11.9999C6.26523 11.9999 6.51958 11.8945 6.70712 11.707C6.89466 11.5195 7.00001 11.2651 7.00001 10.9999C7.00257 9.81717 7.4243 8.67365 8.19028 7.77248C8.95627 6.87131 10.0169 6.27085 11.1838 6.07777C12.3506 5.88469 13.5481 6.1115 14.5636 6.7179C15.579 7.32431 16.3466 8.27104 16.73 9.3899C16.7872 9.56174 16.8899 9.71483 17.0273 9.83283C17.1647 9.95083 17.3315 10.0293 17.51 10.0599C18.1761 10.1858 18.7799 10.5335 19.223 11.0464C19.6662 11.5594 19.9226 12.2073 19.9504 12.8845C19.9782 13.5618 19.7759 14.2286 19.3763 14.7761C18.9767 15.3237 18.4035 15.7198 17.75 15.8999C17.4928 15.9662 17.2724 16.132 17.1373 16.3608C17.0023 16.5896 16.9637 16.8626 17.03 17.1199C17.0963 17.3772 17.2621 17.5975 17.4909 17.7326C17.7197 17.8676 17.9928 17.9062 18.25 17.8399C19.3024 17.5618 20.2353 16.9479 20.907 16.0914C21.5787 15.2348 21.9526 14.1825 21.9718 13.0942C21.9911 12.0058 21.6546 10.9409 21.0136 10.0612C20.3725 9.18149 19.4619 8.53499 18.42 8.2199ZM12.71 10.2899C12.6149 10.1989 12.5028 10.1275 12.38 10.0799C12.1366 9.97988 11.8635 9.97988 11.62 10.0799C11.4973 10.1275 11.3851 10.1989 11.29 10.2899L8.29001 13.2899C8.10171 13.4782 7.99592 13.7336 7.99592 13.9999C7.99592 14.2662 8.10171 14.5216 8.29001 14.7099C8.47832 14.8982 8.73371 15.004 9.00001 15.004C9.26631 15.004 9.52171 14.8982 9.71001 14.7099L11 13.4099V18.9999C11 19.2651 11.1054 19.5195 11.2929 19.707C11.4804 19.8945 11.7348 19.9999 12 19.9999C12.2652 19.9999 12.5196 19.8945 12.7071 19.707C12.8947 19.5195 13 19.2651 13 18.9999V13.4099L14.29 14.7099C14.383 14.8036 14.4936 14.878 14.6154 14.9288C14.7373 14.9796 14.868 15.0057 15 15.0057C15.132 15.0057 15.2627 14.9796 15.3846 14.9288C15.5064 14.878 15.617 14.8036 15.71 14.7099C15.8037 14.6169 15.8781 14.5063 15.9289 14.3845C15.9797 14.2626 16.0058 14.1319 16.0058 13.9999C16.0058 13.8679 15.9797 13.7372 15.9289 13.6153C15.8781 13.4935 15.8037 13.3829 15.71 13.2899L12.71 10.2899Z" fill="black"/>
</svg>
