<svg width="24" height="24" viewBox="0 0 24 24" fill="none" xmlns="http://www.w3.org/2000/svg">
<path fill-rule="evenodd" clip-rule="evenodd" d="M3.58824 1C2.90179 1 2.24346 1.27269 1.75808 1.75808C1.27269 2.24346 1 2.90179 1 3.58824V15.2353C1 15.9217 1.27269 16.5801 1.75808 17.0655C2.24346 17.5508 2.90179 17.8235 3.58824 17.8235H6.17647V20.4118C6.17647 21.0982 6.44916 21.7565 6.93455 22.2419C7.41994 22.7273 8.07826 23 8.76471 23H20.4118C21.0982 23 21.7565 22.7273 22.2419 22.2419C22.7273 21.7565 23 21.0982 23 20.4118V8.76471C23 8.07826 22.7273 7.41994 22.2419 6.93455C21.7565 6.44916 21.0982 6.17647 20.4118 6.17647H17.8235V3.58824C17.8235 2.90179 17.5508 2.24346 17.0655 1.75808C16.5801 1.27269 15.9217 1 15.2353 1H3.58824ZM15.2353 6.17647V3.58824H3.58824V15.2353H6.17647V8.76471C6.17647 8.07826 6.44916 7.41994 6.93455 6.93455C7.41994 6.44916 8.07826 6.17647 8.76471 6.17647H15.2353Z" fill="white"/>
<path d="M13.9558 14.3256L17.009 11.3366L17.0544 11.3256C17.2682 11.1171 17.558 11 17.8603 11C18.1626 11 18.4525 11.1171 18.6662 11.3256C18.8799 11.534 19 11.8168 19 12.1116C19 12.4064 18.8799 12.6891 18.6662 12.8976L14.7616 16.6725C14.6561 16.7763 14.5306 16.8587 14.3923 16.9149C14.254 16.9711 14.1056 17 13.9558 17C13.8059 17 13.6576 16.9711 13.5192 16.9149C13.3809 16.8587 13.2554 16.7763 13.1499 16.6725L11.3338 14.9013C11.1201 14.6928 11 14.4101 11 14.1153C11 13.8205 11.1201 13.5378 11.3338 13.3293C11.5475 13.1208 11.8374 13.0037 12.1397 13.0037C12.442 13.0037 12.7318 13.1208 12.9456 13.3293L13.9558 14.3256Z" fill="black"/>
</svg>
