<svg width="24" height="24" viewBox="0 0 24 24" fill="none" xmlns="http://www.w3.org/2000/svg">
<path d="M2.50003 8.86013L11.5 14.0601C11.6521 14.1479 11.8245 14.1941 12 14.1941C12.1756 14.1941 12.348 14.1479 12.5 14.0601L21.5 8.86013C21.6512 8.77287 21.7768 8.64758 21.8646 8.49671C21.9523 8.34584 21.999 8.17464 22 8.00013C22.0007 7.82392 21.9549 7.65065 21.8671 7.49787C21.7792 7.3451 21.6526 7.21823 21.5 7.13013L12.5 1.94013C12.348 1.85236 12.1756 1.80615 12 1.80615C11.8245 1.80615 11.6521 1.85236 11.5 1.94013L2.50003 7.13013C2.34743 7.21823 2.22081 7.3451 2.13301 7.49787C2.04521 7.65065 1.99933 7.82392 2.00003 8.00013C2.00108 8.17464 2.04779 8.34584 2.13551 8.49671C2.22322 8.64758 2.34889 8.77287 2.50003 8.86013ZM12 4.00013L19 8.00013L12 12.0001L5.00003 8.00013L12 4.00013ZM20.5 11.1701L12 16.0001L3.50003 11.1301C3.3859 11.064 3.25981 11.0211 3.12903 11.0039C2.99825 10.9868 2.86537 10.9956 2.73803 11.03C2.61069 11.0644 2.49141 11.1236 2.38706 11.2043C2.28271 11.285 2.19536 11.3855 2.13003 11.5001C1.99966 11.7297 1.96539 12.0016 2.03471 12.2564C2.10403 12.5112 2.2713 12.7282 2.50003 12.8601L11.5 18.0601C11.6521 18.1479 11.8245 18.1941 12 18.1941C12.1756 18.1941 12.348 18.1479 12.5 18.0601L21.5 12.8601C21.7288 12.7282 21.896 12.5112 21.9654 12.2564C22.0347 12.0016 22.0004 11.7297 21.87 11.5001C21.8047 11.3855 21.7173 11.285 21.613 11.2043C21.5087 11.1236 21.3894 11.0644 21.262 11.03C21.1347 10.9956 21.0018 10.9868 20.871 11.0039C20.7402 11.0211 20.6142 11.064 20.5 11.1301V11.1701ZM20.5 15.1701L12 20.0001L3.50003 15.1301C3.3859 15.064 3.25981 15.0211 3.12903 15.0039C2.99825 14.9868 2.86537 14.9956 2.73803 15.03C2.61069 15.0644 2.49141 15.1236 2.38706 15.2043C2.28271 15.285 2.19536 15.3855 2.13003 15.5001C1.99966 15.7297 1.96539 16.0016 2.03471 16.2564C2.10403 16.5112 2.2713 16.7282 2.50003 16.8601L11.5 22.0601C11.6521 22.1479 11.8245 22.1941 12 22.1941C12.1756 22.1941 12.348 22.1479 12.5 22.0601L21.5 16.8601C21.7288 16.7282 21.896 16.5112 21.9654 16.2564C22.0347 16.0016 22.0004 15.7297 21.87 15.5001C21.8047 15.3855 21.7173 15.285 21.613 15.2043C21.5087 15.1236 21.3894 15.0644 21.262 15.03C21.1347 14.9956 21.0018 14.9868 20.871 15.0039C20.7402 15.0211 20.6142 15.064 20.5 15.1301V15.1701Z" fill="black"/>
</svg>
