<svg width="24" height="24" viewBox="0 0 24 24" fill="none" xmlns="http://www.w3.org/2000/svg">
<path d="M15.71 8.28983C15.617 8.19611 15.5064 8.12171 15.3845 8.07094C15.2627 8.02017 15.132 7.99404 15 7.99404C14.8679 7.99404 14.7372 8.02017 14.6154 8.07094C14.4935 8.12171 14.3829 8.19611 14.29 8.28983L12 10.5898L9.70996 8.28983C9.52165 8.10153 9.26626 7.99574 8.99996 7.99574C8.73366 7.99574 8.47826 8.10153 8.28996 8.28983C8.10165 8.47814 7.99587 8.73353 7.99587 8.99984C7.99587 9.26614 8.10165 9.52153 8.28996 9.70984L10.59 11.9998L8.28996 14.2898C8.19623 14.3828 8.12183 14.4934 8.07107 14.6153C8.0203 14.7371 7.99416 14.8678 7.99416 14.9998C7.99416 15.1318 8.0203 15.2626 8.07107 15.3844C8.12183 15.5063 8.19623 15.6169 8.28996 15.7098C8.38292 15.8036 8.49352 15.878 8.61538 15.9287C8.73724 15.9795 8.86795 16.0056 8.99996 16.0056C9.13197 16.0056 9.26267 15.9795 9.38453 15.9287C9.50639 15.878 9.61699 15.8036 9.70996 15.7098L12 13.4098L14.29 15.7098C14.3829 15.8036 14.4935 15.878 14.6154 15.9287C14.7372 15.9795 14.8679 16.0056 15 16.0056C15.132 16.0056 15.2627 15.9795 15.3845 15.9287C15.5064 15.878 15.617 15.8036 15.71 15.7098C15.8037 15.6169 15.8781 15.5063 15.9288 15.3844C15.9796 15.2626 16.0058 15.1318 16.0058 14.9998C16.0058 14.8678 15.9796 14.7371 15.9288 14.6153C15.8781 14.4934 15.8037 14.3828 15.71 14.2898L13.41 11.9998L15.71 9.70984C15.8037 9.61687 15.8781 9.50627 15.9288 9.38441C15.9796 9.26255 16.0058 9.13185 16.0058 8.99984C16.0058 8.86782 15.9796 8.73712 15.9288 8.61526C15.8781 8.4934 15.8037 8.3828 15.71 8.28983ZM19.07 4.92984C18.1475 3.97473 17.044 3.21291 15.824 2.68882C14.604 2.16473 13.2918 1.88887 11.964 1.87733C10.6362 1.86579 9.31938 2.11881 8.09042 2.62162C6.86145 3.12443 5.74493 3.86696 4.80601 4.80589C3.86708 5.74481 3.12455 6.86133 2.62174 8.09029C2.11893 9.31926 1.86591 10.6361 1.87745 11.9638C1.88899 13.2916 2.16485 14.6038 2.68894 15.8239C3.21303 17.0439 3.97486 18.1474 4.92996 19.0698C5.85243 20.0249 6.95587 20.7868 8.17591 21.3109C9.39595 21.8349 10.7082 22.1108 12.0359 22.1223C13.3637 22.1339 14.6805 21.8809 15.9095 21.3781C17.1385 20.8752 18.255 20.1327 19.1939 19.1938C20.1328 18.2549 20.8754 17.1383 21.3782 15.9094C21.881 14.6804 22.134 13.3636 22.1225 12.0358C22.1109 10.708 21.8351 9.39583 21.311 8.17579C20.7869 6.95575 20.0251 5.8523 19.07 4.92984ZM17.66 17.6598C16.352 18.9692 14.6305 19.7847 12.7888 19.9671C10.947 20.1496 9.09896 19.6879 7.55948 18.6606C6.02 17.6333 4.88432 16.104 4.34593 14.3333C3.80754 12.5626 3.89976 10.66 4.60687 8.94962C5.31398 7.23926 6.59223 5.82698 8.22385 4.9534C9.85546 4.07981 11.7395 3.79897 13.555 4.15871C15.3704 4.51845 17.005 5.49653 18.1802 6.9263C19.3554 8.35607 19.9985 10.1491 20 11.9998C20.0035 13.0511 19.7985 14.0927 19.3969 15.0642C18.9952 16.0358 18.4049 16.918 17.66 17.6598Z" fill="black"/>
</svg>
