<svg width="24" height="24" viewBox="0 0 24 24" fill="none" xmlns="http://www.w3.org/2000/svg">
<g clip-path="url(#clip0_4646_28670)">
<path d="M2 7C2.26522 7 2.51957 7.10536 2.70711 7.29289C2.89464 7.48043 3 7.73478 3 8V18C3 18.7956 3.31607 19.5587 3.87868 20.1213C4.44129 20.6839 5.20435 21 6 21H16C16.2652 21 16.5196 21.1054 16.7071 21.2929C16.8946 21.4804 17 21.7348 17 22C17 22.2652 16.8946 22.5196 16.7071 22.7071C16.5196 22.8946 16.2652 23 16 23H6C4.67392 23 3.40215 22.4732 2.46447 21.5355C1.52678 20.5979 1 19.3261 1 18V8C1 7.73478 1.10536 7.48043 1.29289 7.29289C1.48043 7.10536 1.73478 7 2 7Z" fill="black"/>
<path d="M20.1111 11C19.8754 11 19.6493 11.0937 19.4826 11.2604C19.3159 11.427 19.2222 11.6531 19.2222 11.8889V12.2267L17.9067 10.9111C17.4422 10.4503 16.8143 10.1917 16.16 10.1917C15.5057 10.1917 14.8778 10.4503 14.4133 10.9111L13.7911 11.5333L11.5867 9.32889C11.1157 8.88054 10.4903 8.63048 9.84 8.63048C9.18972 8.63048 8.56434 8.88054 8.09333 9.32889L6.77778 10.6444V5.66667C6.77778 5.43092 6.87143 5.20483 7.03813 5.03813C7.20483 4.87143 7.43092 4.77778 7.66667 4.77778H13.8889C14.1246 4.77778 14.3507 4.68413 14.5174 4.51743C14.6841 4.35073 14.7778 4.12464 14.7778 3.88889C14.7778 3.65314 14.6841 3.42705 14.5174 3.26035C14.3507 3.09365 14.1246 3 13.8889 3H7.66667C6.95942 3 6.28115 3.28095 5.78105 3.78105C5.28095 4.28115 5 4.95942 5 5.66667V16.3333C5 17.0406 5.28095 17.7189 5.78105 18.219C6.28115 18.719 6.95942 19 7.66667 19H18.3333C19.0406 19 19.7189 18.719 20.219 18.219C20.719 17.7189 21 17.0406 21 16.3333V11.8889C21 11.6531 20.9064 11.427 20.7397 11.2604C20.573 11.0937 20.3469 11 20.1111 11ZM7.66667 17.2222C7.43092 17.2222 7.20483 17.1286 7.03813 16.9619C6.87143 16.7952 6.77778 16.5691 6.77778 16.3333V13.16L9.35556 10.5822C9.48614 10.4578 9.65961 10.3884 9.84 10.3884C10.0204 10.3884 10.1939 10.4578 10.3244 10.5822L13.1422 13.4L16.9644 17.2222H7.66667ZM19.2222 16.3333C19.2209 16.5035 19.1648 16.6687 19.0622 16.8044L15.0533 12.7778L15.6756 12.1556C15.7393 12.0905 15.8153 12.0388 15.8993 12.0036C15.9832 11.9683 16.0734 11.9501 16.1644 11.9501C16.2555 11.9501 16.3456 11.9683 16.4296 12.0036C16.5135 12.0388 16.5896 12.0905 16.6533 12.1556L19.2222 14.7422V16.3333Z" fill="black"/>
<path d="M22.2167 3.37094L22.2167 6.78386C22.2172 6.89005 22.1966 6.99528 22.1561 7.09348C22.1157 7.19167 22.0562 7.28089 21.9811 7.35598C21.906 7.43107 21.8168 7.49055 21.7186 7.53099C21.6204 7.57142 21.5152 7.59202 21.409 7.59158C21.3028 7.59202 21.1976 7.57142 21.0994 7.53099C21.0012 7.49055 20.912 7.43107 20.8369 7.35598C20.7618 7.28089 20.7023 7.19167 20.6619 7.09348C20.6214 6.99528 20.6009 6.89005 20.6013 6.78386L20.607 5.31061L17.4273 8.49032C17.2764 8.64118 17.0718 8.72593 16.8585 8.72593C16.6451 8.72593 16.4405 8.64118 16.2896 8.49032C16.1388 8.33946 16.054 8.13485 16.054 7.9215C16.054 7.70815 16.1388 7.50354 16.2896 7.35268L19.4693 4.17297L17.9961 4.17866C17.7819 4.17866 17.5764 4.09356 17.4249 3.94208C17.2735 3.79061 17.1884 3.58516 17.1884 3.37094C17.1884 3.15671 17.2735 2.95127 17.4249 2.79979C17.4999 2.72478 17.589 2.66529 17.687 2.6247C17.785 2.5841 17.89 2.56321 17.9961 2.56321L21.409 2.56321C21.5149 2.56552 21.6193 2.58872 21.7162 2.63147C21.9116 2.71306 22.0669 2.86839 22.1485 3.06377C22.1912 3.16067 22.2144 3.26505 22.2167 3.37094Z" fill="black"/>
</g>
<defs>
<clipPath id="clip0_4646_28670">
<rect width="24" height="24" fill="white"/>
</clipPath>
</defs>
</svg>
