<svg width="24" height="24" viewBox="0 0 24 24" fill="none" xmlns="http://www.w3.org/2000/svg">
<path d="M13 20H6C5.73478 20 5.48043 19.8946 5.29289 19.7071C5.10536 19.5196 5 19.2652 5 19V5C5 4.73478 5.10536 4.48043 5.29289 4.29289C5.48043 4.10536 5.73478 4 6 4H11V7C11 7.79565 11.3161 8.55871 11.8787 9.12132C12.4413 9.68393 13.2044 10 14 10H17V12C17 12.2652 17.1054 12.5196 17.2929 12.7071C17.4804 12.8946 17.7348 13 18 13C18.2652 13 18.5196 12.8946 18.7071 12.7071C18.8946 12.5196 19 12.2652 19 12V9C19 9 19 9 19 8.94C18.9896 8.84813 18.9695 8.75763 18.94 8.67V8.58C18.8919 8.47718 18.8278 8.38267 18.75 8.3L12.75 2.3C12.6673 2.22222 12.5728 2.15808 12.47 2.11C12.4402 2.10576 12.4099 2.10576 12.38 2.11C12.2784 2.05174 12.1662 2.01434 12.05 2H6C5.20435 2 4.44129 2.31607 3.87868 2.87868C3.31607 3.44129 3 4.20435 3 5V19C3 19.7956 3.31607 20.5587 3.87868 21.1213C4.44129 21.6839 5.20435 22 6 22H13C13.2652 22 13.5196 21.8946 13.7071 21.7071C13.8946 21.5196 14 21.2652 14 21C14 20.7348 13.8946 20.4804 13.7071 20.2929C13.5196 20.1054 13.2652 20 13 20ZM13 5.41L15.59 8H14C13.7348 8 13.4804 7.89464 13.2929 7.70711C13.1054 7.51957 13 7.26522 13 7V5.41ZM8 8C7.73478 8 7.48043 8.10536 7.29289 8.29289C7.10536 8.48043 7 8.73478 7 9C7 9.26522 7.10536 9.51957 7.29289 9.70711C7.48043 9.89464 7.73478 10 8 10H9C9.26522 10 9.51957 9.89464 9.70711 9.70711C9.89464 9.51957 10 9.26522 10 9C10 8.73478 9.89464 8.48043 9.70711 8.29289C9.51957 8.10536 9.26522 8 9 8H8ZM14 12H8C7.73478 12 7.48043 12.1054 7.29289 12.2929C7.10536 12.4804 7 12.7348 7 13C7 13.2652 7.10536 13.5196 7.29289 13.7071C7.48043 13.8946 7.73478 14 8 14H14C14.2652 14 14.5196 13.8946 14.7071 13.7071C14.8946 13.5196 15 13.2652 15 13C15 12.7348 14.8946 12.4804 14.7071 12.2929C14.5196 12.1054 14.2652 12 14 12ZM12 18C12.2652 18 12.5196 17.8946 12.7071 17.7071C12.8946 17.5196 13 17.2652 13 17C13 16.7348 12.8946 16.4804 12.7071 16.2929C12.5196 16.1054 12.2652 16 12 16H8C7.73478 16 7.48043 16.1054 7.29289 16.2929C7.10536 16.4804 7 16.7348 7 17C7 17.2652 7.10536 17.5196 7.29289 17.7071C7.48043 17.8946 7.73478 18 8 18H12Z" fill="black"/>
<path d="M20.71 17.7141L18.71 19.7141C18.617 19.8078 18.5064 19.8822 18.3846 19.933C18.2627 19.9838 18.132 20.0099 18 20.0099C17.868 20.0099 17.7373 19.9838 17.6154 19.933C17.4935 19.8822 17.3829 19.8078 17.29 19.7141C17.1963 19.6211 17.1219 19.5105 17.0711 19.3887C17.0203 19.2668 16.9942 19.1361 16.9942 19.0041C16.9942 18.8721 17.0203 18.7414 17.0711 18.6195C17.1219 18.4977 17.1963 18.3871 17.29 18.2941L17.59 18.0041L15 18.0041C14.7348 18.0041 14.4804 17.8987 14.2929 17.7112C14.1053 17.5237 14 17.2693 14 17.0041C14 16.7389 14.1053 16.4845 14.2929 16.297C14.4804 16.1094 14.7348 16.0041 15 16.0041L17.59 16.0041L17.29 15.7141C17.1017 15.5258 16.9959 15.2704 16.9959 15.0041C16.9959 14.7378 17.1017 14.4824 17.29 14.2941C17.4783 14.1058 17.7337 14 18 14C18.2663 14 18.5217 14.1058 18.71 14.2941L20.71 16.2941C20.801 16.3892 20.8724 16.5013 20.92 16.6241C21.02 16.8676 21.02 17.1406 20.92 17.3841C20.8724 17.5068 20.801 17.619 20.71 17.7141Z" fill="black"/>
</svg>
