<svg width="24" height="24" viewBox="0 0 24 24" fill="none" xmlns="http://www.w3.org/2000/svg">
<path d="M19 11.4798C18.7348 11.4798 18.4804 11.5852 18.2929 11.7727C18.1054 11.9603 18 12.2146 18 12.4798V14.8698L16.5 13.3898C15.973 12.8838 15.2706 12.6012 14.54 12.6012C13.8094 12.6012 13.107 12.8838 12.58 13.3898L11.88 14.0898L9.39 11.5998C8.86912 11.082 8.16448 10.7913 7.43 10.7913C6.69551 10.7913 5.99088 11.082 5.47 11.5998L4 13.0898V7.47984C4 7.21462 4.10536 6.96027 4.29289 6.77273C4.48043 6.58519 4.73478 6.47984 5 6.47984H11C11.2652 6.47984 11.5196 6.37448 11.7071 6.18694C11.8946 5.99941 12 5.74505 12 5.47984C12 5.21462 11.8946 4.96027 11.7071 4.77273C11.5196 4.58519 11.2652 4.47984 11 4.47984H5C4.20435 4.47984 3.44129 4.79591 2.87868 5.35852C2.31607 5.92112 2 6.68419 2 7.47984V19.4798C2 20.2755 2.31607 21.0385 2.87868 21.6012C3.44129 22.1638 4.20435 22.4798 5 22.4798H17C17.7956 22.4798 18.5587 22.1638 19.1213 21.6012C19.6839 21.0385 20 20.2755 20 19.4798V12.4798C20 12.2146 19.8946 11.9603 19.7071 11.7727C19.5196 11.5852 19.2652 11.4798 19 11.4798ZM5 20.4798C4.73478 20.4798 4.48043 20.3745 4.29289 20.1869C4.10536 19.9994 4 19.7451 4 19.4798V15.9198L6.88 12.9998C6.95271 12.9248 7.03975 12.8652 7.13595 12.8245C7.23214 12.7838 7.33554 12.7628 7.44 12.7628C7.54446 12.7628 7.64786 12.7838 7.74405 12.8245C7.84025 12.8652 7.92729 12.9248 8 12.9998L11.17 16.1698L15.43 20.4298L5 20.4798ZM18 19.4798C17.9965 19.6725 17.9375 19.86 17.83 20.0198L13.29 15.4998L13.99 14.8098C14.1362 14.6645 14.3339 14.5829 14.54 14.5829C14.7461 14.5829 14.9438 14.6645 15.09 14.8098L18 17.6998V19.4798ZM21.72 4.22984L19.3 1.80984C19.1126 1.62358 18.8592 1.51904 18.595 1.51904C18.3308 1.51904 18.0774 1.62358 17.89 1.80984L13.31 6.38984C13.2137 6.48161 13.1367 6.59168 13.0835 6.7136C13.0302 6.83551 13.0018 6.96682 13 7.09984V9.51984C13 9.78505 13.1054 10.0394 13.2929 10.2269C13.4804 10.4145 13.7348 10.5198 14 10.5198H16.42C16.6823 10.5187 16.9337 10.4146 17.12 10.2298L21.7 5.64984C21.795 5.5582 21.871 5.44865 21.9235 5.3275C21.976 5.20636 22.004 5.07602 22.0058 4.944C22.0077 4.81199 21.9834 4.68091 21.9343 4.55833C21.8853 4.43576 21.8124 4.32411 21.72 4.22984ZM16 8.51984H15V7.51984L18.6 3.92984L19.6 4.92984L16 8.51984Z" fill="black"/>
</svg>
