<svg width="24" height="24" viewBox="0 0 24 24" fill="none" xmlns="http://www.w3.org/2000/svg">
<path d="M12.4999 21.8701L20.2899 17.3701C20.4425 17.282 20.5691 17.1551 20.6569 17.0023C20.7447 16.8495 20.7906 16.6763 20.7899 16.5001L20.7899 7.50007C20.7906 7.32386 20.7447 7.15059 20.6569 6.99781C20.5691 6.84504 20.4425 6.71817 20.2899 6.63007L12.4999 2.13007C12.3479 2.0423 12.1754 1.99609 11.9999 1.99609C11.8244 1.99609 11.6519 2.0423 11.4999 2.13007L3.70991 6.63007C3.5573 6.71817 3.43069 6.84504 3.34289 6.99781C3.25508 7.15059 3.20921 7.32386 3.20991 7.50007L3.20991 16.5001C3.20921 16.6763 3.25508 16.8495 3.34289 17.0023C3.43069 17.1551 3.5573 17.282 3.70991 17.3701L11.4999 21.8701C11.6519 21.9578 11.8244 22.004 11.9999 22.004C12.1754 22.004 12.3479 21.9578 12.4999 21.8701ZM5.20991 15.8701L5.20991 8.08007L11.9999 4.15007L18.7899 8.08007L18.7899 15.9201L11.9999 19.8501L5.20991 15.8701Z" fill="black"/>
<path d="M10.8889 10.3371C11.2178 10.1173 11.6044 10 12 10C12.5304 10 13.0391 10.2107 13.4142 10.5858C13.7893 10.9609 14 11.4696 14 12C14 12.3956 13.8827 12.7822 13.6629 13.1111C13.4432 13.44 13.1308 13.6964 12.7654 13.8478C12.3999 13.9991 11.9978 14.0387 11.6098 13.9616C11.2219 13.8844 10.8655 13.6939 10.5858 13.4142C10.3061 13.1345 10.1156 12.7781 10.0384 12.3902C9.96126 12.0022 10.0009 11.6001 10.1522 11.2346C10.3036 10.8692 10.56 10.5568 10.8889 10.3371Z" fill="black"/>
</svg>
