<svg width="24" height="24" viewBox="0 0 24 24" fill="none" xmlns="http://www.w3.org/2000/svg">
<path fill-rule="evenodd" clip-rule="evenodd" d="M3.58824 1C2.90179 1 2.24346 1.27269 1.75808 1.75808C1.27269 2.24346 1 2.90179 1 3.58824V15.2353C1 15.9217 1.27269 16.5801 1.75808 17.0655C2.24346 17.5508 2.90179 17.8235 3.58824 17.8235H6.17647V20.4118C6.17647 21.0982 6.44916 21.7565 6.93455 22.2419C7.41994 22.7273 8.07826 23 8.76471 23H20.4118C21.0982 23 21.7565 22.7273 22.2419 22.2419C22.7273 21.7565 23 21.0982 23 20.4118V8.76471C23 8.07826 22.7273 7.41994 22.2419 6.93455C21.7565 6.44916 21.0982 6.17647 20.4118 6.17647H17.8235V3.58824C17.8235 2.90179 17.5508 2.24346 17.0655 1.75808C16.5801 1.27269 15.9217 1 15.2353 1H3.58824ZM15.2353 6.17647V3.58824H3.58824V15.2353H6.17647V8.76471C6.17647 8.07826 6.44916 7.41994 6.93455 6.93455C7.41994 6.44916 8.07826 6.17647 8.76471 6.17647H15.2353ZM8.76471 8.76471H20.4118V20.4118H8.76471V8.76471Z" fill="black"/>
</svg>
