<svg width="24" height="24" viewBox="0 0 24 24" fill="none" xmlns="http://www.w3.org/2000/svg">
<path fill-rule="evenodd" clip-rule="evenodd" d="M17.1218 1.87009C15.7573 0.505545 13.4779 0.765613 12.4558 2.40247L9.61059 6.95902C9.61059 6.95902 9.6091 6.96153 9.60377 6.96535C9.59725 6.97002 9.58333 6.97808 9.55998 6.98466C9.50896 6.99902 9.44231 6.99791 9.38278 6.97585C8.4117 6.61585 6.7448 6.22038 5.01386 6.87237C4.08129 7.22364 3.61593 8.03208 3.56522 8.85229C3.51684 9.63488 3.8329 10.4394 4.41422 11.0207L7.94972 14.5562L1.2697 21.2362C0.879176 21.6268 0.879176 22.2599 1.2697 22.6505C1.66022 23.041 2.29339 23.041 2.68391 22.6505L9.36394 15.9704L12.8995 19.506C13.4808 20.0873 14.2853 20.4034 15.0679 20.355C15.8881 20.3043 16.6966 19.8389 17.0478 18.9064C17.6998 17.1754 17.3043 15.5085 16.9444 14.5374C16.9223 14.4779 16.9212 14.4113 16.9355 14.3602C16.9421 14.3369 16.9502 14.323 16.9549 14.3164C16.9587 14.3111 16.9611 14.3097 16.9611 14.3097L21.5177 11.4644C23.1546 10.4423 23.4147 8.16293 22.0501 6.79839L17.1218 1.87009Z" fill="black"/>
</svg>
