<svg width="24" height="24" viewBox="0 0 24 24" fill="none" xmlns="http://www.w3.org/2000/svg">
<g clip-path="url(#clip0_4530_14266)">
<path d="M19 13C18.7348 13 18.4804 13.1054 18.2929 13.2929C18.1054 13.4804 18 13.7348 18 14V14.38L16.52 12.9C15.9974 12.3815 15.2911 12.0906 14.555 12.0906C13.8189 12.0906 13.1126 12.3815 12.59 12.9L11.89 13.6L9.41 11.12C8.88012 10.6156 8.17657 10.3343 7.445 10.3343C6.71343 10.3343 6.00988 10.6156 5.48 11.12L4 12.6V7C4 6.73478 4.10536 6.48043 4.29289 6.29289C4.48043 6.10536 4.73478 6 5 6H12C12.2652 6 12.5196 5.89464 12.7071 5.70711C12.8946 5.51957 13 5.26522 13 5C13 4.73478 12.8946 4.48043 12.7071 4.29289C12.5196 4.10536 12.2652 4 12 4H5C4.20435 4 3.44129 4.31607 2.87868 4.87868C2.31607 5.44129 2 6.20435 2 7V19C2 19.7957 2.31607 20.5587 2.87868 21.1213C3.44129 21.6839 4.20435 22 5 22H17C17.7956 22 18.5587 21.6839 19.1213 21.1213C19.6839 20.5587 20 19.7957 20 19V14C20 13.7348 19.8946 13.4804 19.7071 13.2929C19.5196 13.1054 19.2652 13 19 13ZM5 20C4.73478 20 4.48043 19.8946 4.29289 19.7071C4.10536 19.5196 4 19.2652 4 19V15.43L6.9 12.53C7.04691 12.39 7.24206 12.3119 7.445 12.3119C7.64794 12.3119 7.84309 12.39 7.99 12.53L11.16 15.7L15.46 20H5ZM18 19C17.9986 19.1914 17.9354 19.3773 17.82 19.53L13.31 15L14.01 14.3C14.0817 14.2268 14.1673 14.1687 14.2617 14.129C14.3561 14.0893 14.4576 14.0689 14.56 14.0689C14.6624 14.0689 14.7639 14.0893 14.8583 14.129C14.9527 14.1687 15.0383 14.2268 15.11 14.3L18 17.21V19Z" fill="black"/>
<path d="M22.1993 3.5349V7.77754C22.1999 7.90955 22.1743 8.04036 22.124 8.16243C22.0737 8.2845 21.9998 8.3954 21.9065 8.48875C21.8131 8.58209 21.7022 8.65604 21.5801 8.7063C21.4581 8.75657 21.3273 8.78217 21.1952 8.78163C21.0632 8.78217 20.9324 8.75657 20.8104 8.7063C20.6883 8.65603 20.5774 8.58209 20.484 8.48875C20.3907 8.3954 20.3168 8.2845 20.2665 8.16243C20.2162 8.04036 20.1906 7.90955 20.1912 7.77754L20.1982 5.94613L16.2455 9.89886C16.058 10.0864 15.8036 10.1918 15.5384 10.1918C15.2732 10.1918 15.0188 10.0864 14.8313 9.89886C14.6437 9.71133 14.5384 9.45697 14.5384 9.19175C14.5384 8.92654 14.6437 8.67218 14.8313 8.48465L18.784 4.53192L16.9526 4.53899C16.6863 4.53899 16.4309 4.4332 16.2426 4.2449C16.0543 4.0566 15.9485 3.8012 15.9485 3.5349C15.9485 3.2686 16.0543 3.0132 16.2426 2.8249C16.3358 2.73166 16.4465 2.6577 16.5684 2.60724C16.6902 2.55678 16.8207 2.53081 16.9526 2.53081L21.1952 2.53081C21.3269 2.53368 21.4566 2.56252 21.5771 2.61566C21.82 2.71709 22.0131 2.91019 22.1145 3.15306C22.1676 3.27352 22.1965 3.40328 22.1993 3.5349Z" fill="black"/>
</g>
<defs>
<clipPath id="clip0_4530_14266">
<rect width="24" height="24" fill="white"/>
</clipPath>
</defs>
</svg>
