<svg width="24" height="24" viewBox="0 0 24 24" fill="none" xmlns="http://www.w3.org/2000/svg">
<path d="M6.83704 14.7021C7.46119 14.7021 8.03067 14.9731 8.52844 15.4697C9.32568 16.2671 9.36555 17.0832 9.24426 17.6328C9.05687 18.478 8.37841 19.2719 7.30188 20.0186C6.21953 20.7692 4.69842 21.4987 2.75598 22.2051C2.67164 22.2354 2.584 22.2488 2.50012 22.249C2.37956 22.2493 2.26048 22.2205 2.15344 22.165C2.04639 22.1095 1.95414 22.0284 1.88489 21.9297C1.81578 21.831 1.77171 21.7171 1.75598 21.5977C1.74026 21.4781 1.75276 21.3564 1.79407 21.2432C2.56707 19.1182 3.36666 17.4973 4.19153 16.4033C5.01244 15.3146 5.89468 14.7023 6.83704 14.7021ZM22.2491 2.5C22.2491 5.12285 21.8046 7.4717 20.92 9.47559C20.1902 11.1281 19.1648 12.5472 17.8702 13.6895C17.6575 13.8771 17.4413 14.0498 17.2267 14.2129C17.1435 15.0928 16.7873 15.978 16.174 16.8496C15.6333 17.6183 14.89 18.3833 13.9698 19.126C12.4266 20.3716 10.9063 21.1372 10.8361 21.1729L10.8322 21.1748C10.6731 21.2521 10.4909 21.2708 10.3195 21.2275C10.1481 21.1842 9.99797 21.0809 9.89465 20.9375C9.79132 20.794 9.74175 20.6187 9.755 20.4424C9.76832 20.2661 9.84332 20.1 9.96692 19.9736L9.96887 19.9717C9.98057 19.9596 10.4239 19.503 10.8624 18.7285L11.0031 18.4678C11.3148 17.8595 11.6325 17.0259 11.7228 16.0479C11.3335 15.8653 10.9318 15.582 10.5802 15.2988C10.1727 14.9706 9.81487 14.6282 9.59387 14.4072C9.37277 14.1861 9.03063 13.8277 8.70227 13.4199C8.41886 13.068 8.13475 12.667 7.95227 12.2773C6.82707 12.3815 5.893 12.7874 5.27356 13.1377C4.48858 13.5818 4.02844 14.0333 4.02844 14.0332C3.90247 14.1586 3.73588 14.2359 3.55872 14.25C3.38129 14.264 3.20395 14.2146 3.05969 14.1104C2.91552 14.0061 2.81302 13.8535 2.77063 13.6807C2.72839 13.508 2.7488 13.326 2.82825 13.167L2.82922 13.165C2.86581 13.093 3.63052 11.5735 4.87512 10.0312C5.6178 9.11095 6.38287 8.36684 7.15149 7.82617C8.0212 7.21343 8.90681 6.85621 9.78625 6.77344C9.95026 6.55783 10.1245 6.34219 10.3116 6.12988C11.4538 4.83524 12.8721 3.81001 14.5245 3.08008C16.376 2.26298 18.5203 1.82255 20.9034 1.75977L20.8947 1.75H22.2491V2.5ZM6.82922 16.2021C6.65638 16.2048 6.44109 16.2822 6.18665 16.4717C5.92943 16.6633 5.64887 16.9566 5.35461 17.3545C4.85137 18.0348 4.33887 18.9762 3.82825 20.1689C4.89546 19.712 5.76368 19.2543 6.42297 18.8018C7.46439 18.0863 7.72287 17.5661 7.7804 17.3076C7.83281 17.0715 7.76184 16.8233 7.46887 16.5303C7.22703 16.2885 7.02224 16.2021 6.83704 16.2021H6.82922ZM15.3175 15.3936C14.5043 15.7926 13.7672 16.035 13.2179 16.1553C13.1568 16.8386 13.0081 17.5096 12.7765 18.1533C13.2435 17.7937 13.7193 17.392 14.1466 16.9521C14.6214 16.4635 15.0303 15.9377 15.3175 15.3936ZM20.7335 3.26855C16.7221 3.41884 13.5298 4.75343 11.4376 7.12402C10.5423 8.13903 9.9944 9.17207 9.67004 9.9873C9.50796 10.3947 9.40192 10.7468 9.33704 11.0137C9.27493 11.2692 9.25373 11.4336 9.2511 11.4922C9.25996 11.5283 9.31358 11.7148 9.59778 12.1182L9.8136 12.4082C10.0491 12.7074 10.34 13.0322 10.6554 13.3477C11.076 13.7683 11.5144 14.1444 11.8849 14.4053C12.2843 14.6867 12.4712 14.7413 12.5099 14.751C12.5678 14.7485 12.732 14.7283 12.9884 14.666C13.2553 14.6011 13.6082 14.4962 14.0157 14.334C14.8308 14.0096 15.8632 13.4607 16.8781 12.5654L16.9445 12.5068C19.275 10.4135 20.5849 7.2437 20.7335 3.26855ZM15.4991 5.75C17.0152 5.75 18.2491 6.984 18.2491 8.5C18.2491 10.0159 17.0151 11.25 15.4991 11.25C13.9832 11.25 12.7492 10.0159 12.7491 8.5C12.7491 6.98403 13.9831 5.75005 15.4991 5.75ZM8.60754 8.68066C8.06239 8.96774 7.53714 9.37923 7.04797 9.85449C6.60731 10.2826 6.20388 10.7585 5.84387 11.2266C6.48844 10.9944 7.16053 10.8449 7.84485 10.7832C7.96529 10.2328 8.20755 9.49487 8.60754 8.68066ZM15.4991 7.25C14.8103 7.25005 14.2491 7.81116 14.2491 8.5C14.2492 9.18876 14.8103 9.74995 15.4991 9.75C16.188 9.75 16.7491 9.18879 16.7491 8.5C16.7491 7.81113 16.1881 7.25 15.4991 7.25Z" fill="black"/>
</svg>
