<svg width="24" height="24" viewBox="0 0 24 24" fill="none" xmlns="http://www.w3.org/2000/svg">
<path d="M19.0967 1.70996L19.1299 1.71094C19.473 1.72164 19.7911 1.89694 19.9824 2.18359L22.8154 6.43359C22.8441 6.47568 22.8691 6.52028 22.8916 6.56641C22.8968 6.57704 22.9014 6.58787 22.9062 6.59863C22.944 6.68302 22.9706 6.77288 22.9854 6.86719C22.9873 6.87926 22.9897 6.8912 22.9912 6.90332C22.9963 6.94562 23 6.98855 23 7.03223C23 7.03413 22.999 7.03618 22.999 7.03809C22.999 7.04232 22.9991 7.04655 22.999 7.05078C22.9983 7.09589 22.9935 7.14002 22.9873 7.18359C22.9859 7.19336 22.9851 7.20316 22.9834 7.21289C22.976 7.25616 22.9666 7.29853 22.9541 7.33984C22.9511 7.3497 22.9476 7.35936 22.9443 7.36914C22.9311 7.40878 22.9151 7.44696 22.8975 7.48438C22.8937 7.49242 22.8907 7.50082 22.8867 7.50879C22.8643 7.5534 22.8388 7.59596 22.8105 7.63672C22.8092 7.6386 22.8089 7.64168 22.8076 7.64355L12.8721 21.8369C12.8692 21.8411 12.8653 21.8445 12.8623 21.8486C12.8514 21.8637 12.8398 21.8781 12.8281 21.8926C12.8188 21.9042 12.8095 21.9156 12.7998 21.9268C12.7921 21.9356 12.7844 21.9445 12.7764 21.9531C12.7606 21.97 12.7443 21.9862 12.7275 22.002C12.7233 22.0059 12.7191 22.0098 12.7148 22.0137C12.6966 22.0302 12.6783 22.0464 12.6592 22.0615C12.6508 22.0682 12.6415 22.0737 12.6328 22.0801C12.6145 22.0936 12.5962 22.1069 12.5771 22.1191C12.571 22.1231 12.5648 22.127 12.5586 22.1309C12.5369 22.1442 12.5147 22.1562 12.4922 22.168C12.4897 22.1692 12.4878 22.1716 12.4854 22.1729C12.4816 22.1748 12.4774 22.1759 12.4736 22.1777C12.4502 22.1894 12.4265 22.2001 12.4023 22.21C12.399 22.2113 12.3959 22.2135 12.3926 22.2148C12.3647 22.2259 12.3363 22.2355 12.3076 22.2441C12.3044 22.2451 12.3011 22.2461 12.2979 22.2471C12.272 22.2546 12.246 22.261 12.2197 22.2666C12.2132 22.268 12.2067 22.2693 12.2002 22.2705C12.1782 22.2747 12.1561 22.2784 12.1338 22.2812C12.1211 22.2829 12.1084 22.284 12.0957 22.2852C12.0759 22.287 12.0561 22.2884 12.0361 22.2891C12.0286 22.2893 12.0212 22.289 12.0137 22.2891C11.9893 22.2894 11.9649 22.2894 11.9404 22.2881C11.9313 22.2876 11.9222 22.2869 11.9131 22.2861C11.8929 22.2845 11.8727 22.2821 11.8525 22.2793C11.8417 22.2778 11.8311 22.2753 11.8203 22.2734C11.7988 22.2697 11.7773 22.2658 11.7559 22.2607C11.7467 22.2586 11.7376 22.2563 11.7285 22.2539C11.7079 22.2484 11.6875 22.2421 11.667 22.2354C11.6582 22.2324 11.6494 22.2297 11.6406 22.2266C11.6194 22.2189 11.5981 22.2112 11.5771 22.2021C11.5673 22.1979 11.5576 22.1931 11.5479 22.1885C11.5369 22.1833 11.5254 22.1794 11.5146 22.1738C11.5084 22.1706 11.5023 22.1664 11.4961 22.1631C11.4789 22.1538 11.462 22.144 11.4453 22.1338C11.4374 22.129 11.4296 22.1241 11.4219 22.1191C11.4056 22.1086 11.3898 22.0974 11.374 22.0859C11.3587 22.0748 11.3437 22.0636 11.3291 22.0518C11.3259 22.0491 11.3225 22.0466 11.3193 22.0439C11.2983 22.0265 11.2782 22.0081 11.2588 21.9893C11.2527 21.9833 11.2472 21.9768 11.2412 21.9707C11.2267 21.9559 11.2118 21.9414 11.1982 21.9258C11.1951 21.9221 11.1916 21.9187 11.1885 21.915L11.1494 21.8662C11.1459 21.8615 11.1431 21.8563 11.1396 21.8516L11.1279 21.8369L1.19238 7.64258C1.19171 7.64162 1.1911 7.64061 1.19043 7.63965C1.18656 7.63409 1.18248 7.62868 1.17871 7.62305C1.16775 7.6066 1.15842 7.58923 1.14844 7.57227C1.14411 7.56494 1.1389 7.55817 1.13477 7.55078L1.12305 7.5293C1.11836 7.5204 1.11478 7.51097 1.11035 7.50195C1.07045 7.42112 1.04044 7.33749 1.02246 7.25195C1.01715 7.22663 1.01422 7.20076 1.01074 7.1748C1.00437 7.12733 1.00093 7.07982 1.00098 7.03223C1.00096 7.00976 1.00152 6.98733 1.00293 6.96484C1.00341 6.95739 1.0023 6.94982 1.00293 6.94238C1.00619 6.90353 1.01194 6.86473 1.01953 6.82617C1.02011 6.82323 1.02088 6.82032 1.02148 6.81738L1.04297 6.73145C1.04442 6.72651 1.04632 6.72171 1.04785 6.7168C1.05164 6.70457 1.05633 6.69269 1.06055 6.68066C1.06673 6.66297 1.07296 6.6453 1.08008 6.62793C1.08441 6.61739 1.08909 6.60704 1.09375 6.59668C1.10106 6.58035 1.10806 6.56384 1.11621 6.54785C1.12797 6.5249 1.14168 6.50283 1.15527 6.48047C1.15912 6.47413 1.16203 6.46721 1.16602 6.46094L1.17871 6.44141L4.01758 2.18359L4.09766 2.07812C4.2984 1.84578 4.59196 1.70996 4.90332 1.70996H19.0967ZM12 18.0029L15.4678 8.09668H8.5332L12 18.0029ZM15.5547 14.291L19.8906 8.09668H17.7236L15.5547 14.291ZM8.44434 14.29L6.27637 8.09668H4.10938L8.44434 14.29ZM17.7344 5.96777H19.9463L18.5273 3.83887H17.0254L17.7344 5.96777ZM8.50977 5.96777H15.4912L14.7813 3.83887H9.21973L8.50977 5.96777ZM4.05371 5.96777H6.26465L6.97461 3.83887H5.47363L4.05371 5.96777Z" fill="black"/>
</svg>
