<svg width="24" height="24" viewBox="0 0 24 24" fill="none" xmlns="http://www.w3.org/2000/svg">
<path d="M19.89 9.5498C19.8069 9.38488 19.6797 9.2462 19.5226 9.14912C19.3656 9.05204 19.1847 9.00036 19 8.9998H14V2.9998C14.0107 2.78048 13.949 2.56373 13.8243 2.383C13.6996 2.20227 13.5188 2.06761 13.31 1.9998C13.1092 1.93374 12.8927 1.933 12.6914 1.99768C12.4902 2.06236 12.3147 2.18913 12.19 2.3598L4.18998 13.3598C4.08975 13.5047 4.02956 13.6734 4.01551 13.849C4.00147 14.0246 4.03406 14.2008 4.10998 14.3598C4.17991 14.5415 4.30137 14.6989 4.45947 14.8126C4.61757 14.9263 4.80543 14.9914 4.99998 14.9998H9.99998V20.9998C10.0001 21.2107 10.067 21.4161 10.1909 21.5867C10.3148 21.7574 10.4895 21.8844 10.69 21.9498C10.7905 21.9809 10.8948 21.9978 11 21.9998C11.1578 22.0002 11.3134 21.9633 11.4542 21.892C11.595 21.8208 11.7169 21.7172 11.81 21.5898L19.81 10.5898C19.9177 10.4406 19.9822 10.2646 19.9963 10.0811C20.0104 9.89756 19.9736 9.71373 19.89 9.5498ZM12 17.9198V13.9998C12 13.7346 11.8946 13.4802 11.7071 13.2927C11.5196 13.1052 11.2652 12.9998 11 12.9998H6.99998L12 6.0798V9.9998C12 10.265 12.1053 10.5194 12.2929 10.7069C12.4804 10.8944 12.7348 10.9998 13 10.9998H17L12 17.9198Z" fill="black"/>
</svg>
