<svg width="24" height="24" viewBox="0 0 24 24" fill="none" xmlns="http://www.w3.org/2000/svg">
<path d="M9.99998 8H21C21.6 8 22 7.6 22 7C22 6.4 21.6 6 21 6H9.99998C9.39998 6 8.99998 6.4 8.99998 7C8.99998 7.6 9.39998 8 9.99998 8ZM5.69998 15.3V8.7C5.89998 8.9 6.09998 9 6.29998 9C6.59998 9 6.79998 8.9 6.99998 8.8C7.39998 8.4 7.49998 7.8 7.09998 7.4L5.39998 5.4C5.19998 5.1 4.99998 5 4.69998 5C4.39998 5 4.09998 5.1 3.89998 5.4L2.19998 7.4C1.89998 7.8 1.89998 8.4 2.39998 8.8C2.79998 9.1 3.29998 9.1 3.69998 8.8V15.4C3.29998 15.1 2.79998 15 2.39998 15.4C1.99998 15.8 1.89998 16.4 2.29998 16.8L3.99998 18.8C4.09998 18.9 4.39998 19 4.69998 19C4.99998 19 5.29998 18.9 5.49998 18.6L7.19998 16.6C7.59998 16.2 7.49998 15.5 7.09998 15.2C6.59998 14.9 5.99998 14.9 5.69998 15.3ZM21 11H9.99998C9.39998 11 8.99998 11.4 8.99998 12C8.99998 12.6 9.39998 13 9.99998 13H21C21.6 13 22 12.6 22 12C22 11.4 21.6 11 21 11ZM21 16H9.99998C9.39998 16 8.99998 16.4 8.99998 17C8.99998 17.6 9.39998 18 9.99998 18H21C21.6 18 22 17.6 22 17C22 16.4 21.6 16 21 16Z" fill="black"/>
</svg>
