<svg width="24" height="24" viewBox="0 0 24 24" fill="none" xmlns="http://www.w3.org/2000/svg">
<path fill-rule="evenodd" clip-rule="evenodd" d="M17.1218 1.87009C15.7573 0.505545 13.4779 0.765613 12.4558 2.40247L9.61059 6.95902C9.61059 6.95902 9.6091 6.96153 9.60377 6.96535C9.59725 6.97002 9.58333 6.97808 9.55998 6.98466C9.50896 6.99902 9.44231 6.99791 9.38278 6.97585C8.4117 6.61585 6.7448 6.22038 5.01386 6.87237C4.08129 7.22364 3.61593 8.03208 3.56522 8.85229C3.51684 9.63488 3.8329 10.4394 4.41422 11.0207L7.94972 14.5562L1.2697 21.2362C0.879176 21.6268 0.879176 22.2599 1.2697 22.6505C1.66022 23.041 2.29339 23.041 2.68391 22.6505L9.36394 15.9704L12.8995 19.506C13.4808 20.0873 14.2853 20.4034 15.0679 20.355C15.8881 20.3043 16.6966 19.8389 17.0478 18.9064C17.6998 17.1754 17.3043 15.5085 16.9444 14.5374C16.9223 14.4779 16.9212 14.4113 16.9355 14.3602C16.9421 14.3369 16.9502 14.323 16.9549 14.3164C16.9587 14.3111 16.9611 14.3097 16.9611 14.3097L21.5177 11.4644C23.1546 10.4423 23.4147 8.16293 22.0501 6.79839L17.1218 1.87009ZM14.1523 3.46177C14.493 2.91615 15.2528 2.82946 15.7076 3.28431L20.6359 8.2126C21.0907 8.66745 21.0041 9.42723 20.4584 9.76792L15.9019 12.6132C14.9572 13.2031 14.7469 14.3636 15.0691 15.2326C15.3549 16.0036 15.5829 17.1216 15.1762 18.2014C15.1484 18.2751 15.1175 18.3017 15.0985 18.3148C15.0743 18.3315 15.0266 18.3537 14.9445 18.3588C14.767 18.3698 14.5135 18.2915 14.3137 18.0918L5.82843 9.60646C5.62869 9.40672 5.55043 9.15319 5.56141 8.97569C5.56648 8.89356 5.58874 8.84591 5.60545 8.82167C5.61852 8.80271 5.64513 8.77176 5.71883 8.744C6.79866 8.33727 7.91658 8.56531 8.68759 8.85114C9.55665 9.17331 10.7171 8.96304 11.3071 8.01831L14.1523 3.46177Z" fill="black"/>
</svg>
