<svg width="24" height="24" viewBox="0 0 24 24" fill="none" xmlns="http://www.w3.org/2000/svg">
<path d="M20.4899 7.51996C20.4843 7.49359 20.4843 7.46632 20.4899 7.43996C20.4851 7.41688 20.4851 7.39304 20.4899 7.36996V7.27996L20.4299 7.12996C20.4056 7.08903 20.3752 7.05196 20.3399 7.01996L20.2499 6.93996H20.1999L16.2599 4.44996L12.5399 2.14996C12.4539 2.08169 12.3554 2.03075 12.2499 1.99996H12.1699C12.0806 1.98504 11.9893 1.98504 11.8999 1.99996H11.7999C11.6838 2.02565 11.5724 2.06952 11.4699 2.12996L3.99995 6.77996L3.90995 6.84996L3.81995 6.92996L3.71995 6.99996L3.66995 7.05996L3.60995 7.20996V7.29996V7.35996C3.60023 7.42627 3.60023 7.49365 3.60995 7.55996V16.29C3.60961 16.4599 3.65258 16.6271 3.73482 16.7759C3.81705 16.9246 3.93583 17.0499 4.07995 17.14L11.5799 21.78L11.7299 21.84H11.8099C11.9791 21.8936 12.1608 21.8936 12.3299 21.84H12.4099L12.5599 21.78L19.9999 17.21C20.1441 17.1199 20.2628 16.9946 20.3451 16.8459C20.4273 16.6971 20.4703 16.5299 20.4699 16.36V7.62996C20.4699 7.62996 20.4899 7.55996 20.4899 7.51996ZM11.9999 4.16996L13.7799 5.26996L8.18995 8.72996L6.39995 7.62996L11.9999 4.16996ZM10.9999 19.17L5.49995 15.81V9.41996L10.9999 12.82V19.17ZM11.9999 11.06L10.0899 9.90996L15.6799 6.43996L17.5999 7.62996L11.9999 11.06ZM18.4999 15.78L12.9999 19.2V12.82L18.4999 9.41996V15.78Z" fill="black"/>
</svg>
