<svg width="24" height="24" viewBox="0 0 24 24" fill="none" xmlns="http://www.w3.org/2000/svg">
<g clip-path="url(#clip0_7186_54045)">
<path d="M22.9848 19.294C23.6614 20.4666 22.8122 21.9324 21.461 21.9324H3.87258C2.51879 21.9324 1.67354 20.4644 2.34873 19.294L11.143 4.04607C11.8199 2.8729 13.5151 2.87503 14.1907 4.04607L22.9848 19.294ZM12.6669 16.1415C11.7358 16.1415 10.9809 16.8964 10.9809 17.8275C10.9809 18.7586 11.7358 19.5134 12.6669 19.5134C13.598 19.5134 14.3529 18.7586 14.3529 17.8275C14.3529 16.8964 13.598 16.1415 12.6669 16.1415ZM11.0662 10.0814L11.3381 15.066C11.3508 15.2992 11.5437 15.4818 11.7773 15.4818H13.5565C13.7901 15.4818 13.983 15.2992 13.9957 15.066L14.2676 10.0814C14.2813 9.82945 14.0807 9.61761 13.8284 9.61761H11.5053C11.253 9.61761 11.0525 9.82945 11.0662 10.0814Z" fill="black"/>
</g>
<defs>
<clipPath id="clip0_7186_54045">
<rect width="21.1111" height="18.7654" fill="white" transform="translate(2.11133 3.16699)"/>
</clipPath>
</defs>
</svg>
