<svg width="24" height="24" viewBox="0 0 24 24" fill="none" xmlns="http://www.w3.org/2000/svg">
<g clip-path="url(#clip0_7186_54048)">
<path d="M21.8887 12.2227C21.8887 17.7467 17.4111 22.2227 11.8887 22.2227C6.36621 22.2227 1.88867 17.7467 1.88867 12.2227C1.88867 6.70181 6.36621 2.22266 11.8887 2.22266C17.4111 2.22266 21.8887 6.70181 21.8887 12.2227ZM11.8887 14.2388C10.8643 14.2388 10.0338 15.0692 10.0338 16.0936C10.0338 17.118 10.8643 17.9485 11.8887 17.9485C12.9131 17.9485 13.7435 17.118 13.7435 16.0936C13.7435 15.0692 12.9131 14.2388 11.8887 14.2388ZM10.1277 7.57161L10.4268 13.0555C10.4408 13.3121 10.6529 13.513 10.9099 13.513H12.8674C13.1244 13.513 13.3366 13.3121 13.3506 13.0555L13.6497 7.57161C13.6648 7.29443 13.4441 7.06137 13.1665 7.06137H10.6108C10.3332 7.06137 10.1125 7.29443 10.1277 7.57161Z" fill="black"/>
</g>
<defs>
<clipPath id="clip0_7186_54048">
<rect width="20" height="20" fill="white" transform="translate(1.88867 2.22266)"/>
</clipPath>
</defs>
</svg>
