<svg width="18" height="18" viewBox="0 0 18 18" fill="none" xmlns="http://www.w3.org/2000/svg">
<path d="M0 5C0 2.23858 2.23858 0 5 0H13C15.7614 0 18 2.23858 18 5V13C18 15.7614 15.7614 18 13 18H5C2.23858 18 0 15.7614 0 13V5Z" fill="#FF1717"/>
<path d="M11.916 6.08301H4.33268C4.02326 6.08301 3.72652 6.20592 3.50772 6.42472C3.28893 6.64351 3.16602 6.94026 3.16602 7.24967V10.7497C3.16602 11.0591 3.28893 11.3558 3.50772 11.5746C3.72652 11.7934 4.02326 11.9163 4.33268 11.9163H11.916C12.2254 11.9163 12.5222 11.7934 12.741 11.5746C12.9598 11.3558 13.0827 11.0591 13.0827 10.7497V7.24967C13.0827 6.94026 12.9598 6.64351 12.741 6.42472C12.5222 6.20592 12.2254 6.08301 11.916 6.08301ZM11.916 10.7497H4.33268V7.24967H11.916V10.7497ZM14.2493 7.83301C14.0946 7.83301 13.9463 7.89447 13.8369 8.00386C13.7275 8.11326 13.666 8.26163 13.666 8.41634V9.58301C13.666 9.73772 13.7275 9.88609 13.8369 9.99549C13.9463 10.1049 14.0946 10.1663 14.2493 10.1663C14.4041 10.1663 14.5524 10.1049 14.6618 9.99549C14.7712 9.88609 14.8327 9.73772 14.8327 9.58301V8.41634C14.8327 8.26163 14.7712 8.11326 14.6618 8.00386C14.5524 7.89447 14.4041 7.83301 14.2493 7.83301Z" fill="white"/>
<rect x="4.91602" y="7.83301" width="1.75" height="2.33333" fill="white"/>
</svg>
