<svg width="24" height="24" viewBox="0 0 24 24" fill="none" xmlns="http://www.w3.org/2000/svg">
<path d="M0 5C0 2.23858 2.23858 0 5 0H19C21.7614 0 24 2.23858 24 5V19C24 21.7614 21.7614 24 19 24H5C2.23858 24 0 21.7614 0 19V5Z" fill="#FF1717"/>
<path d="M15.334 8.66699H6.66732C6.3137 8.66699 5.97456 8.80747 5.72451 9.05752C5.47446 9.30756 5.33398 9.6467 5.33398 10.0003V14.0003C5.33398 14.3539 5.47446 14.6931 5.72451 14.9431C5.97456 15.1932 6.3137 15.3337 6.66732 15.3337H15.334C15.6876 15.3337 16.0267 15.1932 16.2768 14.9431C16.5268 14.6931 16.6673 14.3539 16.6673 14.0003V10.0003C16.6673 9.6467 16.5268 9.30756 16.2768 9.05752C16.0267 8.80747 15.6876 8.66699 15.334 8.66699ZM15.334 14.0003H6.66732V10.0003H15.334V14.0003ZM18.0007 10.667C17.8238 10.667 17.6543 10.7372 17.5292 10.8623C17.4042 10.9873 17.334 11.1568 17.334 11.3337V12.667C17.334 12.8438 17.4042 13.0134 17.5292 13.1384C17.6543 13.2634 17.8238 13.3337 18.0007 13.3337C18.1775 13.3337 18.347 13.2634 18.4721 13.1384C18.5971 13.0134 18.6673 12.8438 18.6673 12.667V11.3337C18.6673 11.1568 18.5971 10.9873 18.4721 10.8623C18.347 10.7372 18.1775 10.667 18.0007 10.667Z" fill="white"/>
<rect x="7.33398" y="10.667" width="2" height="2.66667" fill="white"/>
</svg>
